<svg id="visual" viewBox="0 0 960 540" width="960" height="540" xmlns="http://www.w3.org/2000/svg" xmlns:xlink="http://www.w3.org/1999/xlink" version="1.1"><rect x="0" y="0" width="960" height="540" fill="#001220"></rect><defs><linearGradient id="grad1_0" x1="43.8%" y1="0%" x2="100%" y2="100%"><stop offset="14.444444444444446%" stop-color="#001220" stop-opacity="1"></stop><stop offset="85.55555555555554%" stop-color="#001220" stop-opacity="1"></stop></linearGradient></defs><defs><linearGradient id="grad2_0" x1="0%" y1="0%" x2="56.3%" y2="100%"><stop offset="14.444444444444446%" stop-color="#001220" stop-opacity="1"></stop><stop offset="85.55555555555554%" stop-color="#001220" stop-opacity="1"></stop></linearGradient></defs><g transform="translate(960, 0)"><path d="M0 351C-46.4 346.8 -92.7 342.6 -134.3 324.3C-175.9 305.9 -212.8 273.4 -236.9 236.9C-261 200.4 -272.3 159.9 -289.2 119.8C-306.1 79.6 -328.5 39.8 -351 0L0 0Z" fill="#1ba94c"></path></g><g transform="translate(0, 540)"><path d="M0 -351C34.8 -319.4 69.7 -287.7 114 -275.3C158.4 -262.9 212.3 -269.7 248.2 -248.2C284.1 -226.7 301.8 -177 316 -130.9C330.1 -84.8 340.5 -42.4 351 0L0 0Z" fill="#1ba94c"></path></g></svg>