<svg id="visual" viewBox="0 0 900 600" width="900" height="600" xmlns="http://www.w3.org/2000/svg" xmlns:xlink="http://www.w3.org/1999/xlink" version="1.1"><rect x="0" y="0" width="900" height="600" fill="#191919"></rect><path d="M0 481L21.5 482.2C43 483.3 86 485.7 128.8 494C171.7 502.3 214.3 516.7 257.2 524.3C300 532 343 533 385.8 518.5C428.7 504 471.3 474 514.2 475.2C557 476.3 600 508.7 642.8 526.2C685.7 543.7 728.3 546.3 771.2 543C814 539.7 857 530.3 878.5 525.7L900 521L900 601L878.5 601C857 601 814 601 771.2 601C728.3 601 685.7 601 642.8 601C600 601 557 601 514.2 601C471.3 601 428.7 601 385.8 601C343 601 300 601 257.2 601C214.3 601 171.7 601 128.8 601C86 601 43 601 21.5 601L0 601Z" fill="#1ba94c" stroke-linecap="round" stroke-linejoin="miter"></path></svg>